<?xml version="1.0" encoding="UTF-8"?>
<svg id="Layer_1" xmlns="http://www.w3.org/2000/svg" version="1.1" viewBox="270 80 1360 330">
  <!-- Generator: Adobe Illustrator 29.0.0, SVG Export Plug-In . SVG Version: 2.1.0 Build 186)  -->
  <defs>
    <style>
      .st0 {
        fill: #2c302f;
      }
    </style>
  </defs>
  <polygon class="st0" points="274.28 83.24 338.11 83.24 338.11 145.36 310.36 145.36 310.36 213.5 335.34 213.5 335.34 275.62 310.36 275.62 310.36 407.75 274.28 407.75 274.28 83.24"/>
  <path class="st0" d="M388.99,218.15c3.7,0,5.55-2.31,5.55-6.49v-59.8c0-4.17-1.85-6.49-5.55-6.49h-5.55v72.78h5.55ZM347.36,83.24h39.78c25.44,0,43.94,15.3,43.94,48.68v94.11c0,12.98-6.01,21.79-16.19,25.03v.93c9.71,2.31,16.65,11.59,16.65,24.57v131.19h-36.08v-120.99c0-4.17-1.85-6.49-5.55-6.49h-6.47v127.49h-36.08V83.24h0Z"/>
  <rect class="st0" x="442.18" y="83.24" width="36.08" height="324.51"/>
  <polygon class="st0" points="489.35 83.24 555.5 83.24 555.5 145.36 525.43 145.36 525.43 213.5 553.18 213.5 553.18 275.62 525.43 275.62 525.43 345.62 556.42 345.62 556.42 407.74 489.35 407.74 489.35 83.24 489.35 83.24"/>
  <polygon class="st0" points="565.2 83.24 625.79 83.24 640.6 345.63 641.99 345.63 641.99 83.24 677.14 83.24 677.14 407.75 614.69 407.75 601.28 145.36 600.35 145.36 600.35 407.75 565.2 407.75 565.2 83.24 565.2 83.24"/>
  <path class="st0" d="M729.86,345.63c3.7,0,5.55-2.31,5.55-6.49v-187.29c0-4.17-1.85-6.49-5.55-6.49h-5.55v200.27h5.55ZM688.23,83.24h40.24c25.44,0,43.94,15.3,43.94,46.82v230.87c0,31.52-18.5,46.82-43.94,46.82h-40.24V83.24Z"/>
  <path class="st0" d="M782.13,367.88v-83.44h36.08v56.56c0,4.17,1.85,6.95,5.55,6.95s5.55-2.78,5.55-6.95v-50.99c0-6.96-.93-9.27-6.01-13.45l-18.96-15.3c-16.65-13.45-22.2-21.33-22.2-50.99v-87.16c0-26.89,18.04-42.18,41.63-42.18s41.63,15.3,41.63,42.18v78.35h-35.62v-51.46c0-4.17-1.85-6.96-5.55-6.96s-5.55,2.78-5.55,6.96v45.9c0,6.49,2.31,9.73,5.55,12.52l19.89,16.23c17.57,14.37,22.2,22.72,22.2,51.46v91.79c0,26.89-18.5,42.18-42.09,42.18s-42.09-15.3-42.09-42.18h0Z"/>
  <polygon class="st0" points="902.38 158.66 938.92 158.66 944.94 349.04 945.87 349.04 954.19 158.66 1007.85 158.66 1015.25 349.04 1016.17 349.04 1023.12 158.66 1058.27 158.66 1045.32 407.75 989.82 407.75 980.1 212.75 979.18 212.75 970.85 407.75 915.35 407.75 902.4 158.66 902.38 158.66"/>
  <path class="st0" d="M1085.7,379.94V124.04c0-27.35,18.04-43.11,42.09-43.11s42.09,15.76,42.09,43.11v85.3h-36.08v-59.34c0-4.17-1.85-6.96-5.55-6.96s-5.55,2.78-5.55,6.96v190.07c0,4.64,2.31,7.88,6.47,7.88s6.47-3.24,6.47-7.88v-48.21h-.25v-62.12h36.33v178.01h-31.45l-2.78-22.25h-.93c-2.31,16.69-12.95,24.57-25.44,24.57-14.34,0-25.44-11.12-25.44-30.14h.01Z"/>
  <rect class="st0" x="1182.37" y="83.24" width="36.08" height="324.51"/>
  <path class="st0" d="M1276.73,258.94l-3.7-113.11h-.93l-3.7,113.11h8.32ZM1280.43,407.75l-1.85-86.69h-12.03l-1.85,86.69h-38.85l14.34-324.51h63.37l14.8,324.51h-37.93Z"/>
  <polygon class="st0" points="1325.75 83.24 1386.35 83.24 1401.15 345.63 1402.54 345.63 1402.54 83.24 1437.69 83.24 1437.69 407.75 1375.25 407.75 1361.83 145.36 1360.9 145.36 1360.9 407.75 1325.75 407.75 1325.75 83.24 1325.75 83.24"/>
  <polygon class="st0" points="1468.68 145.37 1446.01 145.37 1446.01 83.24 1527.42 83.24 1527.42 145.36 1504.75 145.36 1504.75 407.75 1468.68 407.75 1468.68 145.37"/>
  <path class="st0" d="M1534.81,367.88v-83.44h36.08v56.56c0,4.17,1.85,6.95,5.55,6.95s5.55-2.78,5.55-6.95v-50.99c0-6.96-.93-9.27-6.01-13.45l-18.96-15.3c-16.65-13.45-22.2-21.33-22.2-50.99v-87.16c0-26.89,18.04-42.18,41.63-42.18s41.63,15.3,41.63,42.18v78.35h-35.62v-51.46c0-4.17-1.85-6.96-5.55-6.96s-5.55,2.78-5.55,6.96v45.9c0,6.49,2.31,9.73,5.55,12.52l19.89,16.23c17.57,14.37,22.2,22.72,22.2,51.46v91.79c0,26.89-18.5,42.18-42.09,42.18s-42.09-15.3-42.09-42.18h0Z"/>
  <rect class="st0" x="903.03" y="83.54" width="154.75" height="62.11"/>
</svg>
